Coordinates
version=1
nRows=5
nColumns=40
inDegrees=yes

Units are S.I. units (second, meters, Newtons, ...)
If the header above contains a line with 'inDegrees', this indicates whether rotational values are in degrees (yes) or radians (no).

endheader
time	pelvis_tilt	pelvis_list	pelvis_rotation	pelvis_tx	pelvis_ty	pelvis_tz	hip_flexion_r	hip_adduction_r	hip_rotation_r	knee_angle_r	knee_angle_r_beta	ankle_angle_r	subtalar_angle_r	mtp_angle_r	hip_flexion_l	hip_adduction_l	hip_rotation_l	knee_angle_l	knee_angle_l_beta	ankle_angle_l	subtalar_angle_l	mtp_angle_l	lumbar_extension	lumbar_bending	lumbar_rotation	arm_flex_r	arm_add_r	arm_rot_r	elbow_flex_r	pro_sup_r	wrist_flex_r	wrist_dev_r	arm_flex_l	arm_add_l	arm_rot_l	elbow_flex_l	pro_sup_l	wrist_flex_l	wrist_dev_l
      8.65000000	     31.41306589	      2.13930497	      1.59729950	     -0.26806949	      0.94746554	      0.60273011	    -28.64471303	     -9.80306651	    -16.77562189	      2.87849784	      0.05023926	      1.24620524	      0.00000000	      0.00000000	    -28.39064136	     -8.62226123	    -12.35089528	      1.53758085	      0.02683585	     -1.29186820	      0.00000000	      0.00000000	    -38.97587195	     -5.48646491	     -3.22096628	     17.93008286	      1.01773968	      3.05353319	      9.98504454	     32.02937873	      0.00000000	      0.00000000	     20.50197159	     -3.48649044	    -22.04368321	     10.52608732	     26.03564442	      0.00000000	      0.00000000
      8.65500000	     31.43764525	      2.19565493	      1.65602794	     -0.26798667	      0.94746482	      0.60262353	    -28.69074237	     -9.83421288	    -16.88872930	      2.89808040	      0.05058105	      1.25099111	      0.00000000	      0.00000000	    -28.40915737	     -8.59170669	    -12.24182109	      1.53413701	      0.02677574	     -1.27565090	      0.00000000	      0.00000000	    -38.96167956	     -5.50601385	     -3.26984771	     18.06507201	      1.03233404	      3.07603999	      9.52532916	     34.01646117	      0.00000000	      0.00000000	     20.14966049	     -3.54379039	    -20.75053657	     10.70319517	     28.88591377	      0.00000000	      0.00000000
      8.66000000	     31.47529016	      2.15449575	      1.64445268	     -0.26799417	      0.94748512	      0.60259595	    -28.69992447	     -9.81234210	    -16.89162973	      2.94573413	      0.05141276	      1.25507203	      0.00000000	      0.00000000	    -28.45020771	     -8.62985335	    -12.29327042	      1.54333633	      0.02693630	     -1.25505030	      0.00000000	      0.00000000	    -38.96466365	     -5.47803897	     -3.13251202	     17.88624216	      0.90576528	      3.14622376	      9.69671053	     35.70051432	      0.00000000	      0.00000000	     20.11234429	     -3.57409154	    -19.89529236	     10.49234539	     31.29097867	      0.00000000	      0.00000000
      8.66500000	     31.47280615	      2.08408014	      1.61849732	     -0.26782579	      0.94749075	      0.60253516	    -28.69072615	     -9.76222328	    -16.81911680	      2.94331584	      0.05137055	      1.23716694	      0.00000000	      0.00000000	    -28.47813483	     -8.68192231	    -12.34165962	      1.53776156	      0.02683900	     -1.19213200	      0.00000000	      0.00000000	    -38.95695092	     -5.39098232	     -3.32170782	     17.84264436	      0.85066411	      4.34835835	      9.86285032	     34.63745503	      0.00000000	      0.00000000	     20.60688947	     -3.42379139	    -23.62282308	     10.04626192	     30.44623868	      0.00000000	      0.00000000
      8.67000000	     31.49955368	      2.29539710	      1.74240339	     -0.26777355	      0.94742598	      0.60234500	    -28.75962964	     -9.91783310	    -17.03298235	      3.01134060	      0.05255781	      1.36414159	      0.00000000	      0.00000000	    -28.45483938	     -8.53470565	    -12.08421381	      1.56703098	      0.02734985	     -1.20767009	      0.00000000	      0.00000000	    -38.92643561	     -5.52697382	     -3.24725039	     17.57652502	      0.70014786	      4.17081409	     10.02049504	     36.49528148	      0.00000000	      0.00000000	     20.18943930	     -3.54594014	    -20.04461829	     10.17777375	     32.87614875	      0.00000000	      0.00000000
